HIERARCHY
ROOT Hips
{
	OFFSET 0.000000 0.000000 0.000000 
	CHANNELS 6 Xposition Yposition Zposition Zrotation Yrotation Xrotation
	JOINT LeftUpLeg
	{
		OFFSET 1.363060 -1.794630 0.839290 
		CHANNELS 3 Zrotation Yrotation Xrotation
		JOINT LeftLeg
		{
			OFFSET 2.448110 -6.726130 0.000000 
			CHANNELS 3 Zrotation Yrotation Xrotation
			JOINT LeftFoot
			{
				OFFSET 2.562200 -7.039590 0.000000 
				CHANNELS 3 Zrotation Yrotation Xrotation
				JOINT LeftToeBase
				{
					OFFSET 0.157640 -0.433110 2.322550 
					CHANNELS 3 Zrotation Yrotation Xrotation
					End Site
					{
						OFFSET 0.000000 0.000000 0.000000 
					}
				}
			}
		}
	}
	JOINT RightUpLeg
	{
		OFFSET -1.305520 -1.794630 0.839290 
		CHANNELS 3 Zrotation Yrotation Xrotation
		JOINT RightLeg
		{
			OFFSET -2.542530 -6.985550 0.000000 
			CHANNELS 3 Zrotation Yrotation Xrotation
			JOINT RightFoot
			{
				OFFSET -2.568260 -7.056230 0.000000 
				CHANNELS 3 Zrotation Yrotation Xrotation
				JOINT RightToeBase
				{
					OFFSET -0.164730 -0.452590 2.363150 
					CHANNELS 3 Zrotation Yrotation Xrotation
					End Site
					{
						OFFSET 0.000000 0.000000 0.000000 
					}
				}
			}
		}
	}
	JOINT Spine
	{
		OFFSET 0.028270 2.035590 -0.193380 
		CHANNELS 3 Zrotation Yrotation Xrotation
		JOINT Spine1
		{
			OFFSET 0.056720 2.048850 -0.042750 
			CHANNELS 3 Zrotation Yrotation Xrotation
			JOINT Neck1
			{
				OFFSET -0.054170 1.746240 0.172020 
				CHANNELS 3 Zrotation Yrotation Xrotation
				JOINT Head
				{
					OFFSET 0.104070 1.761360 -0.123970 
					CHANNELS 3 Zrotation Yrotation Xrotation
					End Site
					{
						OFFSET 0.000000 0.000000 0.000000 
					}
				}
			}
			JOINT LeftArm
			{
				OFFSET 3.362410 1.200890 -0.311210 
				CHANNELS 3 Zrotation Yrotation Xrotation
				JOINT LeftForeArm
				{
					OFFSET 4.983000 -0.000000 -0.000000 
					CHANNELS 3 Zrotation Yrotation Xrotation
					JOINT LeftHand
					{
						OFFSET 3.483560 -0.000000 -0.000000 
						CHANNELS 3 Zrotation Yrotation Xrotation
						JOINT LeftHandIndex1
						{
							OFFSET 0.715260 -0.000000 -0.000000 
							CHANNELS 3 Zrotation Yrotation Xrotation
							End Site
							{
								OFFSET 0.000000 0.000000 0.000000 
							}
						}
					}
				}
			}
			JOINT RightArm
			{
				OFFSET -3.136600 1.374050 -0.404650 
				CHANNELS 3 Zrotation Yrotation Xrotation
				JOINT RightForeArm
				{
					OFFSET -5.241900 -0.000000 -0.000000 
					CHANNELS 3 Zrotation Yrotation Xrotation
					JOINT RightHand
					{
						OFFSET -3.444170 -0.000000 -0.000000 
						CHANNELS 3 Zrotation Yrotation Xrotation
						JOINT RightHandIndex1
						{
							OFFSET -0.622530 -0.000000 -0.000000 
							CHANNELS 3 Zrotation Yrotation Xrotation
							End Site
							{
								OFFSET 0.000000 0.000000 0.000000 
							}
						}
					}
				}
			}
		}
	}
}
MOTION
Frames: 15
Frame Time: 0.041667
-9.776285 17.615623 -5.807558 -43.716755 77.556432 -22.204638 -4.704366 -12.969339 -26.809356 -0.515117 11.254406 26.961865 -0.510060 5.998210 -10.613212 2.109800 -9.091100 -26.080800 27.381664 12.757693 -15.660583 2.711395 -2.684586 5.754376 0.233301 -7.067635 -4.209547 -0.893500 6.024900 -16.856700 -0.946764 0.490612 0.763778 -7.816322 0.574494 3.130655 0.514820 3.649767 25.126949 -1.469900 1.992700 18.308400 -83.815457 -48.749455 59.108458 22.293045 -29.044824 -7.696039 -1.619144 -0.555414 21.072322 -7.125000 0.000000 0.000000 92.864986 10.999553 45.480372 -112.211374 58.410264 -78.962827 1.182003 -0.509476 -20.327117 7.125000 0.000000 0.000000 
-9.773799 17.613436 -5.797717 -45.905970 78.070001 -24.316900 -4.608304 -13.379903 -27.023762 -0.500697 11.306585 27.039123 -0.457680 5.757958 -10.597859 2.062800 -8.995800 -25.782100 27.394634 12.301380 -16.378142 2.679956 -3.117641 6.788765 0.227740 -6.905337 -4.711679 -0.838000 5.839300 -16.319000 -0.882386 0.225238 0.791224 -7.683205 0.448420 3.232407 0.327320 4.077155 25.028789 -1.520600 2.099200 18.275900 -84.027062 -48.984480 59.097836 22.265772 -29.003549 -7.681043 -1.627038 -0.559015 21.223034 -7.125000 0.000000 0.000000 92.462535 8.018970 44.928550 -117.583224 57.183015 -83.500364 1.199088 -0.509880 -20.745712 7.125000 0.000000 0.000000 
-9.775688 17.609162 -5.785291 -48.216714 78.362224 -26.669501 -4.465453 -13.521101 -27.148097 -0.463582 11.349427 27.161566 -0.387853 5.412001 -10.563047 1.984600 -8.834000 -25.277400 27.587495 11.944404 -16.776708 2.655590 -3.422109 7.526796 0.219168 -6.749149 -5.103340 -0.770600 5.605300 -15.643400 -0.813603 -0.026318 0.841217 -7.484747 0.323334 3.355065 0.187538 4.485373 24.930834 -1.556800 2.210700 18.253500 -83.835505 -49.182226 58.737770 22.315907 -29.044043 -7.713067 -1.631897 -0.571181 21.366395 -7.125000 0.000000 0.000000 91.875914 5.940511 44.790153 -121.158230 56.192356 -86.510941 1.223694 -0.489594 -20.489588 7.125000 0.000000 0.000000 
-9.781951 17.602104 -5.773263 -50.560260 78.459062 -29.109293 -4.251001 -13.510301 -27.203018 -0.415911 11.379446 27.292408 -0.325939 5.091608 -10.505069 1.909300 -8.674500 -24.782200 27.913810 11.693594 -16.961759 2.642296 -3.616702 7.995702 0.210869 -6.642031 -5.376881 -0.729700 5.457800 -15.219100 -0.767763 -0.249662 0.897049 -7.383676 0.217946 3.460482 0.129365 4.755961 24.877931 -1.546000 2.280900 18.213600 -83.340081 -49.355297 58.344011 22.374112 -29.088906 -7.752351 -1.633132 -0.584435 21.476064 -7.125000 0.000000 0.000000 91.219802 4.916111 45.055644 -123.245878 55.554281 -88.240060 1.219858 -0.489895 -20.657925 7.125000 0.000000 0.000000 
-9.789605 17.598426 -5.765409 -51.770882 78.474346 -30.446341 -4.157634 -13.414954 -27.216131 -0.374231 11.411973 27.432476 -0.289327 4.894812 -10.445578 1.957200 -8.776400 -25.098300 28.108579 11.546354 -16.986193 2.635293 -3.706640 8.224565 0.207338 -6.593972 -5.509070 -0.701700 5.354400 -14.922300 -0.770235 -0.435577 0.927984 -7.410685 0.135721 3.457607 0.087588 4.922510 24.865908 -1.561800 2.343300 18.159300 -82.712574 -49.455360 58.073165 22.393728 -29.088301 -7.767976 -1.631588 -0.583698 21.469310 -7.125000 0.000000 0.000000 90.637705 5.192086 45.648501 -123.730167 55.403664 -88.633316 1.203564 -0.482896 -21.069498 7.125000 0.000000 0.000000 
-9.801136 17.596139 -5.761234 -51.493731 78.410911 -30.306989 -4.207666 -13.193074 -27.221801 -0.341220 11.444825 27.565575 -0.261638 4.739227 -10.384682 2.003800 -8.873900 -25.401700 28.128411 11.565468 -16.916129 2.630793 -3.725856 8.289997 0.206427 -6.569606 -5.488066 -0.683100 5.284200 -14.721100 -0.808495 -0.497735 0.932197 -7.463688 0.109420 3.352706 0.084069 4.924291 24.875504 -1.571300 2.355200 18.099800 -82.243217 -49.458520 57.943106 22.443086 -29.123609 -7.791893 -1.626376 -0.568624 21.390598 -7.125000 0.000000 0.000000 90.191044 6.755438 46.353543 -122.418469 55.806575 -87.548799 1.206960 -0.495984 -20.909436 7.125000 0.000000 0.000000 
-9.817340 17.592859 -5.759246 -49.980030 78.205812 -28.953712 -4.331948 -12.829417 -27.184984 -0.316126 11.469619 27.680946 -0.248235 4.662450 -10.380789 2.011700 -8.890300 -25.452900 28.067421 11.793943 -16.744818 2.630427 -3.696989 8.238883 0.206497 -6.559876 -5.368675 -0.692700 5.320400 -14.824700 -0.866660 -0.383830 0.935637 -7.490797 0.162830 3.229739 0.125790 4.777661 24.909773 -1.552200 2.308900 18.046500 -82.015511 -49.491474 57.898800 22.514754 -29.185864 -7.826386 -1.622958 -0.561420 21.317217 -7.125000 0.000000 0.000000 90.025302 9.334590 46.964242 -119.376572 56.717400 -85.020969 1.164640 -0.455550 -20.202707 7.125000 0.000000 0.000000 
-9.835829 17.589578 -5.757556 -47.804120 77.775415 -26.981044 -4.415902 -12.379896 -27.030496 -0.291428 11.481863 27.790348 -0.264998 4.744063 -10.442542 2.016700 -8.900700 -25.485300 28.056070 12.257089 -16.442981 2.638979 -3.629959 8.087038 0.206804 -6.576973 -5.237718 -0.712100 5.393000 -15.032800 -0.938921 -0.082435 0.937110 -7.550979 0.307690 3.085891 0.168280 4.570137 25.000045 -1.535200 2.241500 18.047000 -82.047423 -49.563765 58.037148 22.554577 -29.217509 -7.845809 -1.623546 -0.565795 21.339996 -7.125000 0.000000 0.000000 90.254911 12.599350 47.430274 -113.845762 58.065849 -80.368027 1.156681 -0.479411 -19.684876 7.125000 0.000000 0.000000 
-9.856506 17.588584 -5.756860 -45.514532 77.200712 -24.814988 -4.435732 -11.896361 -26.918188 -0.266959 11.492056 27.890405 -0.295887 4.900258 -10.530530 2.035900 -8.940500 -25.609200 28.067460 12.914848 -16.203681 2.654446 -3.556887 7.880743 0.206510 -6.632192 -5.085210 -0.749400 5.529400 -15.424900 -1.027013 0.324277 0.908825 -7.709253 0.506325 2.908089 0.242074 4.337822 25.139756 -1.482900 2.158500 18.103000 -82.177314 -49.573384 58.403145 22.592651 -29.251494 -7.861452 -1.623386 -0.569131 21.383161 -7.125000 0.000000 0.000000 90.956730 16.290366 47.709617 -106.247473 59.456547 -73.948591 1.132201 -0.441397 -19.689408 7.125000 0.000000 0.000000 
-9.876885 17.589181 -5.756960 -43.139557 76.630281 -22.457851 -4.505062 -11.378571 -26.922458 -0.246921 11.509948 27.990778 -0.333815 5.095513 -10.635760 2.077500 -9.025700 -25.875800 27.992618 13.636556 -16.064541 2.670153 -3.471609 7.618404 0.204635 -6.684688 -4.877952 -0.818600 5.773000 -16.127200 -1.125371 0.758182 0.846077 -7.914100 0.715808 2.685458 0.326848 4.129962 25.283761 -1.406900 2.075700 18.187500 -82.278658 -49.598771 59.029734 22.607144 -29.252808 -7.862522 -1.625616 -0.573641 21.318015 -7.125000 0.000000 0.000000 92.139179 20.099126 47.712998 -96.828308 60.484200 -65.974585 1.117591 -0.418275 -19.513353 7.125000 0.000000 0.000000 
-9.894480 17.586397 -5.755866 -40.787763 76.070212 -20.120811 -4.628983 -10.847752 -26.916074 -0.225799 11.532141 28.112689 -0.382165 5.346978 -10.774376 2.131100 -9.134000 -26.215500 27.867218 14.347589 -15.896371 2.684750 -3.358612 7.290280 0.201488 -6.720819 -4.635568 -0.875600 5.965800 -16.685200 -1.220765 1.196961 0.772367 -8.112666 0.925109 2.430072 0.358687 3.999756 25.383840 -1.367000 2.020500 18.276700 -82.238645 -49.627637 59.809737 22.682519 -29.316023 -7.897969 -1.626557 -0.590269 21.073876 -7.125000 0.000000 0.000000 93.683310 23.786204 47.447458 -87.130619 60.769852 -57.829113 1.111105 -0.371888 -18.955129 7.125000 0.000000 0.000000 
-9.912671 17.582024 -5.753083 -39.034964 75.532523 -18.377988 -4.704852 -10.315300 -26.928503 -0.196015 11.554339 28.246014 -0.426748 5.558048 -10.818900 2.227400 -9.324600 -26.816000 27.803343 15.014083 -15.788579 2.697113 -3.284451 7.048240 0.196820 -6.744660 -4.461929 -0.874500 5.962000 -16.674300 -1.296968 1.609639 0.707909 -8.318987 1.124632 2.201928 0.304652 3.917468 25.423501 -1.409300 1.997100 18.325900 -81.972838 -49.608174 60.644132 22.860600 -29.495240 -7.989622 -1.622661 -0.620166 20.516515 -7.125000 0.000000 0.000000 95.373434 27.026083 46.960594 -79.130811 60.389333 -51.165082 1.109200 -0.316433 -18.702173 7.125000 0.000000 0.000000 
-9.932155 17.579041 -5.748808 -38.209729 75.056300 -17.523945 -4.668636 -9.762478 -27.036446 -0.156370 11.573510 28.369515 -0.451734 5.644939 -10.729910 2.377900 -9.612400 -27.730300 27.875636 15.609930 -15.850947 2.705212 -3.314932 7.042366 0.189623 -6.750557 -4.397619 -0.872400 5.955100 -16.654200 -1.343965 1.991539 0.648826 -8.543495 1.313517 2.002739 0.155560 3.792767 25.436689 -1.562400 1.985800 18.343200 -81.663225 -49.641417 61.586705 22.946112 -29.575409 -8.035349 -1.621473 -0.653580 19.817078 -7.125000 0.000000 0.000000 97.006716 29.658461 46.264033 -73.346343 59.741347 -46.385378 1.096553 -0.262286 -18.907232 7.125000 0.000000 0.000000 
-9.950247 17.577650 -5.741353 -37.802073 74.762741 -16.956444 -4.614846 -9.291984 -27.310382 -0.124108 11.595845 28.455417 -0.453828 5.614398 -10.575670 2.497300 -9.833100 -28.437800 27.918138 16.067515 -16.118440 2.709716 -3.389904 7.128218 0.182917 -6.770798 -4.347825 -0.883800 5.993000 -16.764000 -1.374750 2.300605 0.577626 -8.744221 1.463762 1.860531 -0.003077 3.592420 25.471725 -1.763300 1.973200 18.377800 -81.448301 -49.735176 62.611261 22.894238 -29.513088 -8.013297 -1.623211 -0.684597 19.227105 -7.125000 0.000000 0.000000 98.195196 30.799420 45.276812 -72.049209 59.525740 -45.369816 1.071801 -0.233492 -19.488456 7.125000 0.000000 0.000000 
-9.965854 17.577550 -5.728231 -37.531441 74.724640 -16.521671 -4.607595 -9.035190 -27.587717 -0.109367 11.611999 28.486292 -0.437481 5.501396 -10.414455 2.545000 -9.919300 -28.715600 27.875656 16.267231 -16.447750 2.708187 -3.487479 7.297337 0.179700 -6.783804 -4.376610 -0.865600 5.932400 -16.588500 -1.383570 2.455931 0.504744 -8.784393 1.527209 1.734258 -0.053401 3.355705 25.560511 -1.899300 1.955800 18.446600 -81.274321 -49.798344 63.478775 22.788100 -29.399106 -7.964912 -1.627958 -0.714179 18.795074 -7.125000 0.000000 0.000000 98.619455 30.626670 44.541368 -73.431169 59.698237 -46.579658 1.043546 -0.217909 -19.749778 7.125000 0.000000 0.000000 
